<svg width="33" height="31" fill="none" xmlns="http://www.w3.org/2000/svg"><path d="M32.906 6.75v1.094a.547.547 0 0 1-.547.547h-1.64v.82a.82.82 0 0 1-.82.82H3.101a.82.82 0 0 1-.82-.82v-.82H.64a.547.547 0 0 1-.547-.547V6.75a.547.547 0 0 1 .338-.505L16.29.229a.547.547 0 0 1 .418 0l15.86 6.016a.546.546 0 0 1 .337.505Zm-1.64 20.781H1.734a1.64 1.64 0 0 0-1.64 1.64v1.095a.547.547 0 0 0 .547.547h31.718a.547.547 0 0 0 .547-.547v-1.094a1.64 1.64 0 0 0-1.64-1.64ZM5.563 11.125V24.25H3.102a.82.82 0 0 0-.82.82v1.367h28.437V25.07a.82.82 0 0 0-.82-.82h-2.462V11.125h-4.375V24.25h-4.375V11.125h-4.375V24.25H9.939V11.125H5.561Z" fill="#fff"/></svg>